# xmcd
#
# Track frame offsets:
#	150
#	17770
#	36282
#	48125
#	64132
#	78735
#	93877
#	108347
#	122445
#	138302
#	148452
#	160572
#	175140
#	206402
#
# Disc length: 2942 seconds
#
# Revision: 10
# Processed by: cddbd v1.5.2PL0 Copyright (c) Steve Scherf et al.
# Submitted via: EasyCDDAExtractor 9.0.0.1
#
DISCID=b80b7c0e
DTITLE=Various Artist - 그룹사운드 슈퍼히트 콜렉션
DYEAR=1900
DGENRE=Other
TTITLE0=서울훼미리 - 이제는
TTITLE1=데블스 - 그리운 건 너
TTITLE2=작은거인 - 일곱 색깔 무지개
TTITLE3=열대어 - 젊은 태양
TTITLE4=야생마 - 벌써 나를 잊으셨나요
TTITLE5=활주로 - 탈춤
TTITLE6=서생원 가족 - 또 만나요
TTITLE7=사랑과 평화 - 한동안 뜸 했었지
TTITLE8=히식스 - 당신은 몰라
TTITLE9=빅 화이브 - 해변에서
TTITLE10=템페스트 - 잊게 해주오
TTITLE11=서생원 가족 - 나는 못난이
TTITLE12=시나위 - 해저문 길에서
TTITLE13=영 사운드 - 달무리
EXTD=
EXTT0=
EXTT1=
EXTT2=
EXTT3=
EXTT4=
EXTT5=
EXTT6=
EXTT7=
EXTT8=
EXTT9=
EXTT10=
EXTT11=
EXTT12=
EXTT13=
PLAYORDER=
